<svg width="28" height="28" viewBox="0 0 28 28" fill="none" xmlns="http://www.w3.org/2000/svg">
<path d="M21 0H7C3.15034 0 0 3.15034 0 7V21.0007C0 24.8493 3.15034 28.0007 7 28.0007H21C24.8497 28.0007 28 24.8493 28 21.0007V7C28 3.15034 24.8497 0 21 0ZM25.6666 21.0007C25.6666 23.5732 23.5739 25.6672 21 25.6672H7C4.42716 25.6672 2.33345 23.5732 2.33345 21.0007V7C2.33345 4.42682 4.42716 2.33345 7 2.33345H21C23.5739 2.33345 25.6666 4.42682 25.6666 7V21.0007Z" fill="url(#paint0_linear_63_333)"/>
<path d="M21.5845 8.1665C22.551 8.1665 23.3345 7.383 23.3345 6.4165C23.3345 5.45001 22.551 4.6665 21.5845 4.6665C20.618 4.6665 19.8345 5.45001 19.8345 6.4165C19.8345 7.383 20.618 8.1665 21.5845 8.1665Z" fill="url(#paint1_linear_63_333)"/>
<path d="M14 7C10.1332 7 7 10.1335 7 14C7 17.865 10.1332 21.0007 14 21.0007C17.8657 21.0007 21 17.865 21 14C21 10.1335 17.8657 7 14 7ZM14 18.6672C11.4229 18.6672 9.33345 16.5778 9.33345 14C9.33345 11.4222 11.4229 9.33345 14 9.33345C16.5771 9.33345 18.6666 11.4222 18.6666 14C18.6666 16.5778 16.5771 18.6672 14 18.6672Z" fill="url(#paint2_linear_63_333)"/>
<defs>
<linearGradient id="paint0_linear_63_333" x1="0" y1="0" x2="28.1843" y2="0.186722" gradientUnits="userSpaceOnUse">
<stop stop-color="#9142E0"/>
<stop offset="1" stop-color="#320064"/>
</linearGradient>
<linearGradient id="paint1_linear_63_333" x1="19.8345" y1="4.6665" x2="23.3575" y2="4.68984" gradientUnits="userSpaceOnUse">
<stop stop-color="#9142E0"/>
<stop offset="1" stop-color="#320064"/>
</linearGradient>
<linearGradient id="paint2_linear_63_333" x1="7" y1="7" x2="21.0921" y2="7.09336" gradientUnits="userSpaceOnUse">
<stop stop-color="#9142E0"/>
<stop offset="1" stop-color="#320064"/>
</linearGradient>
</defs>
</svg>
