<svg width="24" height="40" viewBox="0 0 24 40" fill="none" xmlns="http://www.w3.org/2000/svg">
<path d="M22.3981 38.3316H18.2316V11.6653H20.7315C21.1915 11.6653 21.5649 11.2919 21.5649 10.8319C21.5649 10.3719 21.1915 9.99857 20.7315 9.99857H18.2316V0.832035C18.2316 0.562038 18.0999 0.308682 17.8799 0.152043C17.6599 -0.00459582 17.3749 -0.0413141 17.1216 0.0470442C14.2582 1.05203 11.5783 2.81037 9.2133 5.03034C9.1633 5.02034 9.11494 5.00034 9.0633 5.00034H5.72998C5.26999 5.00034 4.89663 5.3737 4.89663 5.83369C4.89663 6.29369 5.26999 6.66704 5.72998 6.66704H7.60496C2.25666 12.567 -0.953297 20.9069 0.253407 27.9918C0.795041 31.1701 2.60002 35.8617 8.27167 38.3333H2.39838C1.93839 38.3333 1.56503 38.7067 1.56503 39.1667C1.56503 39.6266 1.93839 40 2.39838 40H22.3981C22.8581 40 23.2315 39.6266 23.2315 39.1667C23.2314 38.7066 22.8581 38.3316 22.3981 38.3316ZM16.5649 38.3199C12.0883 38.1949 8.52831 37.05 6.00662 34.9983H16.5649V38.3199ZM16.5649 33.3316H4.345C3.56001 32.3533 2.93502 31.245 2.49166 29.9983H16.5649V33.3316ZM16.5649 28.3317H2.39838C2.27174 28.3317 2.15502 28.3633 2.04839 28.4133C1.99675 28.18 1.93839 27.9517 1.89839 27.71C1.74839 26.8266 1.69503 25.9167 1.68675 24.9984H16.5649V28.3317H16.5649ZM16.5649 23.3318H1.74167C1.82831 22.2168 1.99667 21.0934 2.26166 19.9718C2.3083 19.9802 2.35002 19.9984 2.3983 19.9984H16.5648L16.5649 23.3318ZM16.5649 18.3318H2.70338C3.05173 17.2002 3.49837 16.0835 4.00836 14.9869C4.02836 14.9885 4.045 14.9985 4.065 14.9985H16.5649V18.3318ZM16.5649 13.3319H4.84663C5.49662 12.1435 6.22998 10.9969 7.03997 9.91028C7.14832 9.96364 7.26832 9.99864 7.39832 9.99864H16.5649V13.3319ZM16.5649 8.33195H8.30495C9.3583 7.11032 10.4999 5.98197 11.7265 4.99863H16.5649V8.33195ZM16.5649 3.332H14.1315C14.9249 2.85201 15.7315 2.40866 16.5649 2.05038V3.332Z" fill="#4547F4"/>
</svg>
