<svg width="38" height="40" viewBox="0 0 38 40" fill="none" xmlns="http://www.w3.org/2000/svg">
<path d="M37.6975 2.38619C37.6975 1.07797 36.63 0 35.3114 0H8.52956C7.22135 0 6.14338 1.0675 6.14338 2.38619C6.14338 3.31763 6.6876 4.1235 7.47253 4.51073V17.0277C6.69806 17.4987 6.2585 18.315 6.2585 19.4035L6.22711 23.0769C5.83987 23.2967 4.98168 23.9874 5.36892 25.6829C5.37938 25.7457 5.57823 27.2423 6.84458 27.933V27.9435C7.26321 28.8121 7.69231 29.5971 8.1528 30.2878L1.85243 33.8252C1.67452 33.9299 1.50706 34.0136 1.36054 34.0973C0.596546 34.5055 0 34.8299 0 35.8765V39.4767C0 39.7698 0.230246 40 0.523286 40H2.87807H25.4736H35.6253C35.9184 40 36.1486 39.7698 36.1486 39.4767V4.60492C37.0591 4.25955 37.6975 3.40136 37.6975 2.38619ZM7.7551 27.3679C7.68184 27.2318 7.57718 27.1272 7.43066 27.0539C6.58294 26.6353 6.42595 25.5678 6.41549 25.505C6.2899 24.9712 6.24804 24.27 6.75039 23.9874C7.09576 23.7886 7.31554 23.4328 7.31554 23.0455V19.4035C7.31554 18.2941 7.89116 17.6975 9.02146 17.6347C9.39822 17.6138 9.73312 17.5196 10.0157 17.3417C10.8111 16.8603 12.2972 16.8707 12.8728 16.9335C17.572 16.787 18.8174 19.3511 19.1523 20.7117C18.922 20.7012 18.7127 20.764 18.5453 20.9105C18.2522 21.1617 18.2313 21.5699 18.2941 21.8106L18.5139 23.0037C18.6185 23.5897 18.9744 24.0607 19.4662 24.2596C19.7802 24.3956 19.8325 24.9189 19.8325 24.9189C19.7593 26.3004 19.2255 26.6981 18.9116 26.8027C18.5871 26.9178 18.3255 27.19 18.2104 27.5353C16.9021 31.5646 14.516 32.5693 13.5426 32.8205C13.2391 32.8938 12.967 32.9042 12.7263 32.8519C11.0204 32.4647 9.2831 30.5494 7.80743 27.4725L7.7551 27.3679ZM12.4961 33.888C12.674 33.9299 12.8624 33.9508 13.0508 33.9508C13.2287 33.9508 13.4066 33.9089 13.5845 33.8775L14.5892 38.943H11.5123L12.3391 33.8357C12.3914 33.8566 12.4437 33.8776 12.4961 33.888ZM1.0675 38.943V35.866C1.0675 35.4788 1.11983 35.4265 1.88383 35.0079C2.04082 34.9241 2.20827 34.8299 2.39665 34.7253L8.79121 31.1355C9.60753 32.1926 10.4657 32.9566 11.3553 33.4275L10.4657 38.9325H2.89901H1.0675V38.943ZM15.6672 38.943L14.5997 33.574C15.4579 33.2077 16.6196 32.4751 17.6661 31.0099L23.663 34.7253C24.9817 35.4369 24.9817 35.73 24.9817 36.023V38.9325H15.6672V38.943ZM26.0178 38.943V36.0335C26.0178 35.123 25.5468 34.5683 24.1758 33.8357L18.2313 30.1413C18.6081 29.4819 18.9639 28.7179 19.2569 27.8074C19.8221 27.6086 20.7849 26.9806 20.8791 24.9294C20.8582 24.4793 20.6279 23.6211 19.8639 23.3072C19.707 23.2444 19.5814 23.056 19.5395 22.8257L19.3616 21.8524C19.5814 21.9257 19.8221 21.8838 20.0105 21.7478C20.2093 21.6013 20.3035 21.3501 20.2721 21.1094C20.1151 19.8639 19.1313 15.8974 13.3124 15.8974C13.1763 15.8974 13.0298 15.8974 12.8938 15.9079C12.81 15.8974 10.7169 15.6986 9.46102 16.473C9.33543 16.5568 9.15751 16.5986 8.95866 16.6091C8.80167 16.6196 8.66562 16.6405 8.5191 16.6719V4.77237H8.52956H35.123V38.943H26.0178ZM35.6986 3.64207C35.6777 3.64207 35.6672 3.63161 35.6463 3.63161H8.10047C7.57718 3.45369 7.20042 2.9618 7.20042 2.38619C7.20042 1.65358 7.79696 1.04657 8.54003 1.04657H35.3218C36.0544 1.04657 36.6614 1.64312 36.6614 2.38619C36.651 2.9932 36.2428 3.48509 35.6986 3.64207Z" fill="#4547F4"/>
<path d="M31.3868 7.91211H12.3392C12.0462 7.91211 11.8159 8.14236 11.8159 8.4354C11.8159 8.72844 12.0462 8.95868 12.3392 8.95868H31.3868C31.6799 8.95868 31.9101 8.72844 31.9101 8.4354C31.9101 8.14236 31.6694 7.91211 31.3868 7.91211Z" fill="#4547F4"/>
<path d="M31.3866 11.3555H15.8241C15.531 11.3555 15.3008 11.5857 15.3008 11.8788C15.3008 12.1718 15.531 12.402 15.8241 12.402H31.3866C31.6796 12.402 31.9099 12.1718 31.9099 11.8788C31.9099 11.5857 31.6692 11.3555 31.3866 11.3555Z" fill="#4547F4"/>
<path d="M31.3871 14.7878H23.4017C23.1087 14.7878 22.8784 15.0181 22.8784 15.3111C22.8784 15.6042 23.1087 15.8344 23.4017 15.8344H31.3871C31.6801 15.8344 31.9103 15.6042 31.9103 15.3111C31.9103 15.0181 31.6696 14.7878 31.3871 14.7878Z" fill="#4547F4"/>
<path d="M31.3871 18.2207H23.4017C23.1087 18.2207 22.8784 18.4509 22.8784 18.744C22.8784 19.037 23.1087 19.2673 23.4017 19.2673H31.3871C31.6801 19.2673 31.9103 19.037 31.9103 18.744C31.9103 18.4509 31.6696 18.2207 31.3871 18.2207Z" fill="#4547F4"/>
<path d="M31.3871 21.6641H23.4017C23.1087 21.6641 22.8784 21.8943 22.8784 22.1873C22.8784 22.4804 23.1087 22.7106 23.4017 22.7106H31.3871C31.6801 22.7106 31.9103 22.4804 31.9103 22.1873C31.9103 21.8943 31.6696 21.6641 31.3871 21.6641Z" fill="#4547F4"/>
<path d="M31.3871 25.0967H23.4017C23.1087 25.0967 22.8784 25.3269 22.8784 25.62C22.8784 25.913 23.1087 26.1433 23.4017 26.1433H31.3871C31.6801 26.1433 31.9103 25.913 31.9103 25.62C31.9103 25.3269 31.6696 25.0967 31.3871 25.0967Z" fill="#4547F4"/>
<path d="M16.9019 21.9991C17.1845 21.9677 17.3938 21.7061 17.3624 21.4235C17.331 21.1409 17.0694 20.9211 16.7868 20.963C13.1238 21.3502 10.7795 19.5711 10.7481 19.5501C10.5283 19.3827 10.2143 19.4141 10.0364 19.6129L8.46654 21.3816C8.27815 21.6014 8.29908 21.9258 8.5084 22.1247C8.60259 22.2084 8.72818 22.2607 8.85377 22.2607C9.00029 22.2607 9.14681 22.198 9.241 22.0828L10.5074 20.6595C11.4074 21.2037 13.6889 22.3445 16.9019 21.9991Z" fill="#4547F4"/>
</svg>
