<svg width="27" height="40" viewBox="0 0 27 40" fill="none" xmlns="http://www.w3.org/2000/svg">
<path d="M26.3755 32.4096C26.052 32.4096 25.7896 32.672 25.7896 32.9955V38.5045C25.7896 38.6828 25.6445 38.828 25.4661 38.828H22.3163V27.2891C22.3163 26.9655 22.054 26.7032 21.7304 26.7032C21.4068 26.7032 21.1445 26.9655 21.1445 27.2891V38.828H14.8019L16.6412 36.8046C16.8421 36.5835 16.9369 36.2686 16.8946 35.9619C16.8938 35.9559 16.8929 35.95 16.8919 35.9441L15.1401 25.5951L15.612 24.8846C15.873 25.0699 16.074 25.2484 16.4509 25.2484C16.8344 25.2484 17.1929 25.0338 17.3693 24.6805V24.6804L19.217 20.9773L23.426 22.6073C23.5783 22.6727 25.7895 23.6684 25.7895 26.2978V30.2611C25.7894 30.5846 26.0517 30.847 26.3754 30.847C26.699 30.847 26.9613 30.5847 26.9613 30.2611V26.2978C26.9613 22.8334 23.995 21.5741 23.8688 21.5222C23.8651 21.5206 23.8613 21.5191 23.8576 21.5177L16.8523 18.8048V17.1618C17.9649 16.2965 18.7364 15.0138 18.9301 13.5503C19.4848 13.5112 19.9996 13.3041 20.42 12.9426C20.969 12.4705 21.284 11.7834 21.284 11.0577C21.284 10.4555 21.0667 9.88055 20.6795 9.4325V7.26195C20.6795 3.25773 17.4218 0 13.4176 0C9.41336 0 6.1557 3.25773 6.1557 7.26195V9.48938C5.76438 9.93289 5.55156 10.4788 5.55156 11.0577C5.55156 11.7835 5.86641 12.4705 6.41555 12.9427C6.83562 13.3041 7.35008 13.511 7.90469 13.5502C8.09992 15.041 8.89391 16.3716 10.1013 17.2485V18.8048L3.10359 21.5177C3.09992 21.5191 3.09625 21.5205 3.09258 21.522C2.96625 21.574 0 22.8333 0 26.2977V38.5043C0 39.3289 0.670859 39.9998 1.49547 39.9998H7.07805C7.40164 39.9998 7.66398 39.7374 7.66398 39.4138C7.66398 39.0902 7.40164 38.8279 7.07805 38.8279H5.81734V27.2891C5.81734 26.9655 5.555 26.7032 5.23141 26.7032C4.90781 26.7032 4.64547 26.9655 4.64547 27.2891V38.828H1.49555C1.31719 38.828 1.17203 38.6829 1.17203 38.5045V26.2977C1.17203 23.6595 3.39805 22.666 3.53477 22.6076L7.74055 20.9771L9.58836 24.6804C9.76516 25.0345 10.1241 25.2484 10.5068 25.2484C10.8819 25.2484 11.0809 25.0727 11.3457 24.8846L11.8177 25.5951L10.066 35.9441C10.065 35.95 10.0641 35.9559 10.0633 35.9618C10.0209 36.2684 10.1157 36.5834 10.3167 36.8047L12.156 38.8281H9.81266C9.48906 38.8281 9.22672 39.0905 9.22672 39.4141C9.22672 39.7377 9.48906 40 9.81266 40H25.4662C26.2908 40 26.9616 39.3291 26.9616 38.5045V32.9956C26.9615 32.672 26.6991 32.4096 26.3755 32.4096ZM18.1194 20.5523L16.3968 24.0046C16.354 23.9742 15.4411 23.3256 14.3252 22.5332C14.8094 21.9355 14.2429 22.6347 16.4529 19.9069L18.1194 20.5523ZM14.6559 24.2057L14.2092 24.8781H12.748L12.3013 24.2057L13.4787 23.3695L14.6559 24.2057ZM11.2731 18.9938V17.8973C11.985 18.1842 12.7458 18.3173 13.4888 18.3173C14.257 18.3173 15.0103 18.1535 15.6803 17.8605V18.9986L13.4787 21.7162L11.2731 18.9938ZM20.112 11.0577C20.112 11.4416 19.9457 11.8048 19.6559 12.0541C19.4642 12.2189 19.2327 12.3243 18.9792 12.3655V9.75016C19.6527 9.85953 20.112 10.4181 20.112 11.0577ZM7.85625 12.3655C7.17516 12.255 6.72344 11.6919 6.72344 11.0577C6.72344 10.4312 7.24273 9.92141 7.85625 9.77961V12.3655ZM7.88773 8.58563C7.70109 8.60703 7.48719 8.65758 7.32773 8.7118V7.26195C7.32773 3.90391 10.0596 1.17195 13.4177 1.17195C16.7757 1.17195 19.5076 3.90391 19.5076 7.26195V8.67156C19.3373 8.61977 19.1606 8.58555 18.9793 8.56945C18.9793 8.00406 18.9842 8.11312 17.1346 6.12461C16.7945 5.75914 16.2318 5.68258 15.8036 5.96234C13.7622 7.29586 11.272 7.96578 8.9743 7.80078C8.47031 7.76305 8.01125 8.095 7.88773 8.58563ZM9.0282 12.8269V9.17125V8.97867C11.5575 9.1268 14.2093 8.37539 16.3516 7.00344C17.1998 7.91422 17.6592 8.39195 17.8073 8.57367C17.8073 9.03336 17.8073 12.3006 17.8073 12.8268C17.8073 15.2055 15.8678 17.1452 13.4888 17.1452C10.8174 17.1453 9.0282 15.073 9.0282 12.8269ZM10.5606 24.0046L8.83805 20.5523L10.5016 19.908L12.6298 22.5349C11.5475 23.3034 10.6588 23.9348 10.5606 24.0046ZM11.2329 36.0705L12.9289 26.0499H14.0282L15.7242 36.0705L13.4786 38.541L11.2329 36.0705Z" fill="#4547F4"/>
</svg>
