<svg width="189" height="73" viewBox="0 0 189 73" fill="none" xmlns="http://www.w3.org/2000/svg">
<circle opacity="0.1" cx="167.5" cy="21.5" r="21.5" fill="white"/>
<circle opacity="0.1" cx="20" cy="40" r="13" fill="white"/>
<path d="M108.736 10.6191C110.318 10.6191 111.719 10.9648 112.938 11.6562C114.156 12.3359 115.111 13.3496 115.803 14.6973C116.494 16.0332 116.84 17.4219 116.84 18.8633C116.84 21.418 116.096 24.1016 114.607 26.9141C113.131 29.7148 111.197 31.8535 108.807 33.3301C106.416 34.8066 103.943 35.5449 101.389 35.5449C99.5488 35.5449 98.0078 35.1406 96.7656 34.332C95.5352 33.5117 94.6211 32.4336 94.0234 31.0977C93.4375 29.7617 93.1445 28.4668 93.1445 27.2129C93.1445 24.9863 93.6777 22.7891 94.7441 20.6211C95.8223 18.4414 97.1055 16.625 98.5938 15.1719C100.082 13.707 101.67 12.582 103.357 11.7969C105.045 11.0117 106.838 10.6191 108.736 10.6191ZM108.139 11.7441C106.967 11.7441 105.818 12.0371 104.693 12.623C103.58 13.1973 102.473 14.1465 101.371 15.4707C100.27 16.7832 99.2793 18.5059 98.4004 20.6387C97.3223 23.2637 96.7832 25.7422 96.7832 28.0742C96.7832 29.7383 97.2109 31.2148 98.0664 32.5039C98.9219 33.7812 100.234 34.4199 102.004 34.4199C103.07 34.4199 104.113 34.1562 105.133 33.6289C106.164 33.1016 107.236 32.1992 108.35 30.9219C109.744 29.3164 110.916 27.2715 111.865 24.7871C112.814 22.291 113.289 19.9648 113.289 17.8086C113.289 16.2148 112.861 14.8086 112.006 13.5898C111.15 12.3594 109.861 11.7441 108.139 11.7441ZM127.721 10.0039L121.709 30.9219C121.416 31.9648 121.27 32.6035 121.27 32.8379C121.27 33.0137 121.322 33.1602 121.428 33.2773C121.545 33.3945 121.686 33.4531 121.85 33.4531C122.072 33.4531 122.312 33.3535 122.57 33.1543C123.18 32.6738 123.818 31.9297 124.486 30.9219L125.014 31.4668C123.9 33.0371 122.875 34.1328 121.938 34.7539C121.246 35.1992 120.59 35.4219 119.969 35.4219C119.523 35.4219 119.148 35.2695 118.844 34.9648C118.551 34.6602 118.404 34.3086 118.404 33.9102C118.404 33.4883 118.592 32.6211 118.967 31.3086L123.73 14.8203C124.117 13.4727 124.311 12.6992 124.311 12.5C124.311 12.2188 124.199 11.9902 123.977 11.8145C123.754 11.627 123.408 11.5332 122.939 11.5332C122.67 11.5332 122.26 11.5742 121.709 11.6562V11.0059L127.721 10.0039ZM145.791 20.1816L145.281 22.0098H142.346C142.568 22.6426 142.68 23.2344 142.68 23.7852C142.68 25.332 142.023 26.709 140.711 27.916C139.387 29.123 137.57 29.791 135.262 29.9199C134.02 30.2949 133.088 30.7402 132.467 31.2559C132.232 31.4434 132.115 31.6367 132.115 31.8359C132.115 32.0703 132.221 32.2871 132.432 32.4863C132.643 32.6738 133.176 32.8672 134.031 33.0664L137.441 33.8574C139.328 34.3027 140.576 34.8301 141.186 35.4395C141.783 36.0605 142.082 36.7754 142.082 37.584C142.082 38.5449 141.725 39.4238 141.01 40.2207C140.307 41.0176 139.27 41.6387 137.898 42.084C136.539 42.541 135.033 42.7695 133.381 42.7695C131.928 42.7695 130.604 42.5938 129.408 42.2422C128.213 41.9023 127.357 41.4395 126.842 40.8535C126.326 40.2676 126.068 39.6641 126.068 39.043C126.068 38.5391 126.238 38.0117 126.578 37.4609C126.906 36.9219 127.322 36.4766 127.826 36.125C128.143 35.9023 129.039 35.375 130.516 34.543C129.977 34.1211 129.707 33.6582 129.707 33.1543C129.707 32.6855 129.941 32.1875 130.41 31.6602C130.891 31.1328 131.898 30.5527 133.434 29.9199C132.145 29.6738 131.119 29.1348 130.357 28.3027C129.607 27.4707 129.232 26.5449 129.232 25.5254C129.232 23.8613 129.959 22.373 131.412 21.0605C132.877 19.748 134.822 19.0918 137.248 19.0918C138.127 19.0918 138.848 19.1797 139.41 19.3555C139.973 19.5312 140.518 19.8066 141.045 20.1816H145.791ZM139.691 22.9414C139.691 22.0039 139.428 21.2656 138.9 20.7266C138.385 20.1875 137.705 19.918 136.861 19.918C135.537 19.918 134.441 20.5859 133.574 21.9219C132.719 23.2461 132.291 24.6289 132.291 26.0703C132.291 26.9727 132.566 27.7109 133.117 28.2852C133.668 28.8594 134.336 29.1465 135.121 29.1465C135.742 29.1465 136.34 28.9766 136.914 28.6367C137.5 28.2969 137.992 27.8281 138.391 27.2305C138.789 26.6328 139.105 25.8711 139.34 24.9453C139.574 24.0195 139.691 23.3516 139.691 22.9414ZM131.271 35C130.322 35.4336 129.602 35.9902 129.109 36.6699C128.629 37.3496 128.389 38.0176 128.389 38.6738C128.389 39.4473 128.74 40.0859 129.443 40.5898C130.451 41.3164 131.928 41.6797 133.873 41.6797C135.549 41.6797 136.979 41.3926 138.162 40.8184C139.357 40.2559 139.955 39.5234 139.955 38.6211C139.955 38.1641 139.732 37.7305 139.287 37.3203C138.854 36.9102 138.004 36.5762 136.738 36.3184C136.047 36.1777 134.225 35.7383 131.271 35Z" fill="white"/>
<path d="M170.042 10L165.958 54.7296C165.747 56.8181 165.641 58.1927 165.641 58.8536C165.641 59.9111 165.839 60.7174 166.236 61.2725C166.738 62.0392 167.412 62.6075 168.258 62.9776C169.13 63.3478 170.584 63.5328 172.62 63.5328L172.184 65H151.009L151.445 63.5328H152.357C154.075 63.5328 155.476 63.1627 156.56 62.4225C157.327 61.9202 157.922 61.0875 158.345 59.9243C158.635 59.1048 158.913 57.175 159.177 54.1348L159.812 47.3143H144.426L138.954 54.7296C137.711 56.3951 136.931 57.5979 136.614 58.3381C136.297 59.0519 136.138 59.726 136.138 60.3605C136.138 61.2064 136.482 61.9334 137.169 62.5415C137.857 63.1495 138.993 63.4799 140.58 63.5328L140.143 65H124.242L124.678 63.5328C126.635 63.4535 128.353 62.8058 129.833 61.5898C131.34 60.3473 133.574 57.7169 136.535 53.6986L168.655 10H170.042ZM162.191 23.2048L146.607 44.4196H160.129L162.191 23.2048Z" fill="white"/>
<path d="M168.102 13L160 51C159.789 53.0884 161.203 48.5 165.382 57.5C162.115 56.0385 160.37 58.2985 160.766 58.8536C161.269 59.6203 161.269 62.0524 162.115 62.4225C146.213 62.4225 168.102 65 158.5 63.5328H162.115L160.766 65L161.203 63.5328H162.115C163.833 63.5328 165.234 63.1627 166.318 62.4225C167.085 61.9202 160.938 62.1632 161.361 61C161.652 60.1805 162.734 56.7388 162.999 53.6986L164 46L154.184 47.3143L148.712 54.7296C147.469 56.3951 146.689 57.5979 146.372 58.3381C146.055 59.0519 145.896 59.726 145.896 60.3605C145.896 61.2064 146.24 61.9334 146.927 62.5415C147.615 63.1495 148.751 63.4799 150.337 63.5328L149.901 65H134L134.436 63.5328C136.392 63.4535 138.111 62.8058 139.591 61.5898C141.098 60.3473 143.332 57.7169 146.293 53.6986L168.102 17.5V13ZM167 23.5L156.365 44.4196L166.318 41L167 23.5Z" fill="white"/>
<path d="M5.27344 41.1641H23.3789L21.4277 47.4922H20.7598C20.9824 46.5664 21.0938 45.7402 21.0938 45.0137C21.0938 44.1582 20.8301 43.5137 20.3027 43.0801C19.9043 42.752 18.8789 42.5879 17.2266 42.5879H15.3457L10.6348 59.0059C10.0371 61.0684 9.73828 62.3398 9.73828 62.8203C9.73828 63.2656 9.92578 63.6348 10.3008 63.9277C10.6758 64.209 11.3379 64.3496 12.2871 64.3496H13.0957L12.8848 65H2.51367L2.70703 64.3496H3.16406C4.07812 64.3496 4.78125 64.2031 5.27344 63.9102C5.61328 63.7109 5.91797 63.3535 6.1875 62.8379C6.46875 62.3105 6.85547 61.2031 7.34766 59.5156L12.2871 42.5879H10.8633C9.49219 42.5879 8.38477 42.7637 7.54102 43.1152C6.70898 43.4668 6.03516 43.9766 5.51953 44.6445C5.00391 45.3125 4.58203 46.2617 4.25391 47.4922H3.60352L5.27344 41.1641ZM33.627 49.0918L30.1992 61.0098L29.8125 62.6094C29.7773 62.7617 29.7598 62.8906 29.7598 62.9961C29.7598 63.1836 29.8184 63.3477 29.9355 63.4883C30.0293 63.5938 30.1465 63.6465 30.2871 63.6465C30.4395 63.6465 30.6387 63.5527 30.8848 63.3652C31.3418 63.0254 31.9512 62.3223 32.7129 61.2559L33.3105 61.6777C32.502 62.8965 31.6699 63.8281 30.8145 64.4727C29.959 65.1055 29.168 65.4219 28.4414 65.4219C27.9375 65.4219 27.5566 65.293 27.2988 65.0352C27.0527 64.7891 26.9297 64.4258 26.9297 63.9453C26.9297 63.3711 27.0586 62.6152 27.3164 61.6777L27.6855 60.3594C26.1504 62.3633 24.7383 63.7637 23.4492 64.5605C22.5234 65.1348 21.6152 65.4219 20.7246 65.4219C19.8691 65.4219 19.1309 65.0703 18.5098 64.3672C17.8887 63.6523 17.5781 62.6738 17.5781 61.4316C17.5781 59.5684 18.1348 57.6055 19.248 55.543C20.373 53.4688 21.7969 51.8105 23.5195 50.5684C24.8672 49.584 26.1387 49.0918 27.334 49.0918C28.0488 49.0918 28.6406 49.2793 29.1094 49.6543C29.5898 50.0293 29.9531 50.6504 30.1992 51.5176L30.832 49.5137L33.627 49.0918ZM27.3691 50.0059C26.6191 50.0059 25.8223 50.3574 24.9785 51.0605C23.7832 52.0566 22.7168 53.5332 21.7793 55.4902C20.8535 57.4473 20.3906 59.2168 20.3906 60.7988C20.3906 61.5957 20.5898 62.2285 20.9883 62.6973C21.3867 63.1543 21.8438 63.3828 22.3594 63.3828C23.6367 63.3828 25.0254 62.4395 26.5254 60.5527C28.5293 58.0449 29.5312 55.4727 29.5312 52.8359C29.5312 51.8398 29.3379 51.1191 28.9512 50.6738C28.5645 50.2285 28.0371 50.0059 27.3691 50.0059ZM44.0859 44.7324L42.7148 49.5137H45.4746L45.1758 50.6211H42.4336L39.4102 60.9922C39.082 62.1055 38.918 62.8262 38.918 63.1543C38.918 63.3535 38.9648 63.5059 39.0586 63.6113C39.1523 63.7168 39.2637 63.7695 39.3926 63.7695C39.6855 63.7695 40.0723 63.5645 40.5527 63.1543C40.834 62.9199 41.4609 62.1992 42.4336 60.9922L43.0137 61.4316C41.9355 63.002 40.916 64.1094 39.9551 64.7539C39.2988 65.1992 38.6367 65.4219 37.9688 65.4219C37.4531 65.4219 37.0312 65.2637 36.7031 64.9473C36.375 64.6191 36.2109 64.2031 36.2109 63.6992C36.2109 63.0664 36.3984 62.0996 36.7734 60.7988L39.709 50.6211H37.0547L37.2305 49.9355C38.5195 49.584 39.5918 49.0625 40.4473 48.3711C41.3027 47.668 42.2578 46.4551 43.3125 44.7324H44.0859ZM61.6465 49.0918L58.2188 61.0098L57.832 62.6094C57.7969 62.7617 57.7793 62.8906 57.7793 62.9961C57.7793 63.1836 57.8379 63.3477 57.9551 63.4883C58.0488 63.5938 58.166 63.6465 58.3066 63.6465C58.459 63.6465 58.6582 63.5527 58.9043 63.3652C59.3613 63.0254 59.9707 62.3223 60.7324 61.2559L61.3301 61.6777C60.5215 62.8965 59.6895 63.8281 58.834 64.4727C57.9785 65.1055 57.1875 65.4219 56.4609 65.4219C55.957 65.4219 55.5762 65.293 55.3184 65.0352C55.0723 64.7891 54.9492 64.4258 54.9492 63.9453C54.9492 63.3711 55.0781 62.6152 55.3359 61.6777L55.7051 60.3594C54.1699 62.3633 52.7578 63.7637 51.4688 64.5605C50.543 65.1348 49.6348 65.4219 48.7441 65.4219C47.8887 65.4219 47.1504 65.0703 46.5293 64.3672C45.9082 63.6523 45.5977 62.6738 45.5977 61.4316C45.5977 59.5684 46.1543 57.6055 47.2676 55.543C48.3926 53.4688 49.8164 51.8105 51.5391 50.5684C52.8867 49.584 54.1582 49.0918 55.3535 49.0918C56.0684 49.0918 56.6602 49.2793 57.1289 49.6543C57.6094 50.0293 57.9727 50.6504 58.2188 51.5176L58.8516 49.5137L61.6465 49.0918ZM55.3887 50.0059C54.6387 50.0059 53.8418 50.3574 52.998 51.0605C51.8027 52.0566 50.7363 53.5332 49.7988 55.4902C48.873 57.4473 48.4102 59.2168 48.4102 60.7988C48.4102 61.5957 48.6094 62.2285 49.0078 62.6973C49.4062 63.1543 49.8633 63.3828 50.3789 63.3828C51.6562 63.3828 53.0449 62.4395 54.5449 60.5527C56.5488 58.0449 57.5508 55.4727 57.5508 52.8359C57.5508 51.8398 57.3574 51.1191 56.9707 50.6738C56.584 50.2285 56.0566 50.0059 55.3887 50.0059ZM64.6348 50.0762L70.6992 49.0918L68.168 57.6348C70.2188 54.1309 72.082 51.6816 73.7578 50.2871C74.707 49.4902 75.4805 49.0918 76.0781 49.0918C76.4648 49.0918 76.7695 49.209 76.9922 49.4434C77.2148 49.666 77.3262 49.9941 77.3262 50.4277C77.3262 51.2012 77.127 51.9395 76.7285 52.6426C76.4473 53.1699 76.043 53.4336 75.5156 53.4336C75.2461 53.4336 75.0117 53.3457 74.8125 53.1699C74.625 52.9941 74.5078 52.7246 74.4609 52.3613C74.4375 52.1387 74.3848 51.9922 74.3027 51.9219C74.209 51.8281 74.0977 51.7812 73.9688 51.7812C73.7695 51.7812 73.582 51.8281 73.4062 51.9219C73.1016 52.0859 72.6387 52.543 72.0176 53.293C71.0449 54.4414 69.9902 55.9297 68.8535 57.7578C68.3613 58.5312 67.9395 59.4043 67.5879 60.377C67.0957 61.7129 66.8145 62.5156 66.7441 62.7852L66.1816 65H63.4922L66.7441 54.084C67.1191 52.8184 67.3066 51.916 67.3066 51.377C67.3066 51.166 67.2188 50.9902 67.043 50.8496C66.8086 50.6621 66.498 50.5684 66.1113 50.5684C65.8652 50.5684 65.4141 50.6211 64.7578 50.7266L64.6348 50.0762ZM87.082 40.0039L82.0898 57.2832L84.0938 55.5781C86.2852 53.7266 87.709 52.3555 88.3652 51.4648C88.5762 51.1719 88.6816 50.9492 88.6816 50.7969C88.6816 50.6914 88.6465 50.5918 88.5762 50.498C88.5059 50.4043 88.3652 50.3281 88.1543 50.2695C87.9551 50.2109 87.5977 50.1816 87.082 50.1816H86.4668L86.6602 49.5137H94.3418L94.166 50.1816C93.2871 50.2285 92.5254 50.3691 91.8809 50.6035C91.248 50.8262 90.6328 51.1602 90.0352 51.6055C88.8516 52.4844 88.0723 53.0938 87.6973 53.4336L86.1855 54.7695C86.4434 55.6133 86.7598 56.791 87.1348 58.3027C87.7676 60.8105 88.1953 62.2988 88.418 62.7676C88.6406 63.2363 88.8691 63.4707 89.1035 63.4707C89.3027 63.4707 89.5371 63.3711 89.8066 63.1719C90.416 62.7266 91.0664 62.0176 91.7578 61.0449L92.373 61.4844C91.0957 63.0898 90.1172 64.1504 89.4375 64.666C88.7578 65.1699 88.1367 65.4219 87.5742 65.4219C87.082 65.4219 86.7012 65.2285 86.4316 64.8418C85.9629 64.1504 85.1836 61.4258 84.0938 56.668L81.6855 58.7598L79.875 65H77.1328L82.9688 44.9434L83.4609 43.2383C83.5195 42.9453 83.5488 42.6875 83.5488 42.4648C83.5488 42.1836 83.4375 41.9492 83.2148 41.7617C83.0039 41.5742 82.6934 41.4805 82.2832 41.4805C82.0137 41.4805 81.5859 41.5391 81 41.6562V41.041L87.082 40.0039ZM100.828 42.1133C101.32 42.1133 101.736 42.2832 102.076 42.623C102.416 42.9629 102.586 43.3789 102.586 43.8711C102.586 44.3516 102.41 44.7676 102.059 45.1191C101.719 45.459 101.309 45.6289 100.828 45.6289C100.348 45.6289 99.9316 45.459 99.5801 45.1191C99.2402 44.7676 99.0703 44.3516 99.0703 43.8711C99.0703 43.3789 99.2402 42.9629 99.5801 42.623C99.9199 42.2832 100.336 42.1133 100.828 42.1133ZM101.057 49.0918L97.5762 61.4141C97.3418 62.2461 97.2246 62.7441 97.2246 62.9082C97.2246 63.0957 97.2773 63.248 97.3828 63.3652C97.5 63.4824 97.6348 63.541 97.7871 63.541C97.9629 63.541 98.1738 63.4473 98.4199 63.2598C99.0879 62.7324 99.7617 61.9824 100.441 61.0098L101.057 61.4141C100.26 62.6328 99.3223 63.6582 98.2441 64.4902C97.4473 65.1113 96.6855 65.4219 95.959 65.4219C95.4785 65.4219 95.0859 65.2812 94.7812 65C94.4766 64.707 94.3242 64.3438 94.3242 63.9102C94.3242 63.4766 94.4707 62.7559 94.7637 61.748L97.0488 53.873C97.4238 52.584 97.6113 51.7754 97.6113 51.4473C97.6113 51.1895 97.5176 50.9785 97.3301 50.8145C97.1543 50.6504 96.9082 50.5684 96.5918 50.5684C96.334 50.5684 95.8008 50.6328 94.9922 50.7617V50.0762L101.057 49.0918ZM110.742 49.0918L108.404 57.0898C110.596 53.8203 112.271 51.6699 113.432 50.6387C114.604 49.6074 115.729 49.0918 116.807 49.0918C117.393 49.0918 117.873 49.2852 118.248 49.6719C118.635 50.0586 118.828 50.5625 118.828 51.1836C118.828 51.8867 118.658 52.8242 118.318 53.9961L116.174 61.3965C115.928 62.252 115.805 62.7734 115.805 62.9609C115.805 63.125 115.852 63.2656 115.945 63.3828C116.039 63.4883 116.139 63.541 116.244 63.541C116.385 63.541 116.555 63.4648 116.754 63.3125C117.375 62.8203 118.055 62.0703 118.793 61.0625L119.338 61.3965C118.248 62.9551 117.217 64.0684 116.244 64.7363C115.564 65.1934 114.955 65.4219 114.416 65.4219C113.982 65.4219 113.637 65.2871 113.379 65.0176C113.121 64.7598 112.992 64.4082 112.992 63.9629C112.992 63.4004 113.191 62.4336 113.59 61.0625L115.629 53.9961C115.887 53.1172 116.016 52.4316 116.016 51.9395C116.016 51.7051 115.939 51.5176 115.787 51.377C115.635 51.2246 115.447 51.1484 115.225 51.1484C114.896 51.1484 114.504 51.2891 114.047 51.5703C113.18 52.0977 112.277 52.9707 111.34 54.1895C110.402 55.3965 109.412 56.9434 108.369 58.8301C107.818 59.8262 107.361 60.916 106.998 62.0996L106.119 65H103.482L106.682 53.9961C107.057 52.6719 107.244 51.875 107.244 51.6055C107.244 51.3477 107.139 51.125 106.928 50.9375C106.729 50.7383 106.477 50.6387 106.172 50.6387C106.031 50.6387 105.785 50.6621 105.434 50.709L104.766 50.8145L104.66 50.1816L110.742 49.0918Z" fill="white"/>
</svg>
